<?xml version="1.0" encoding="UTF-8"?>
<svg version="1.1" xmlns="http://www.w3.org/2000/svg" width="512" height="512">
<path d="M0 0 C4.38754438 2.15388542 7.52067915 4.77597188 10 9 C11.95805233 16.04094159 10.41300461 22.21438826 8.77734375 29.1640625 C5.2850319 46.39748077 6.08647721 66.57967276 15.7421875 81.734375 C17.41370405 83.92958557 19.1161332 85.98548472 21 88 C21.94166016 89.14082031 21.94166016 89.14082031 22.90234375 90.3046875 C24.84572682 92.24321809 24.84572682 92.24321809 27.27734375 91.9765625 C30.83993223 90.69873306 34.18332309 89.06458845 37.5625 87.375 C87.82293158 63.07861805 147.53971309 60.17899825 200.1875 78.3125 C210.36212237 81.93199846 220.86529058 85.90001942 230.25 91.29296875 C232.59120454 92.23885719 233.68095276 91.93965387 236 91 C244.83412036 85.00762465 249.42132286 73.38064335 251.9375 63.375 C254.27477674 50.41109861 253.57673754 37.53206064 251.01293945 24.68505859 C249.69253605 17.91605659 249.48377782 12.97628799 252.6875 6.6875 C255.90770593 2.94509852 258.44984007 0.4725536 263.4453125 -0.453125 C277.74869649 -1.3496334 289.13956889 10.22650877 299.31640625 18.99609375 C313.9823795 32.77322014 322.8803931 51.55111899 327 71 C327.33644531 72.44052734 327.33644531 72.44052734 327.6796875 73.91015625 C332.04279209 96.11417481 328.9324388 119.62854427 323.1875 141.25 C322.94193359 142.18102539 322.69636719 143.11205078 322.44335938 144.07128906 C321.25263435 148.34790068 319.98424235 152.26674223 317.85546875 156.171875 C314.86683686 161.7838766 314.86683686 161.7838766 314 168 C315.83281266 173.83928925 319.27541671 178.91767878 322.4765625 184.0859375 C349.7188503 228.24945121 352.65875187 288.30940271 341.25244141 337.62939453 C336.95619013 354.84842321 330.53022565 371.4508733 322 387 C321.2835579 388.3448943 320.56741919 389.68995026 319.8515625 391.03515625 C308.0452896 412.91041134 291.35371275 434.29167835 272 450 C270.94767136 450.88773012 269.89561339 451.77578115 268.84375 452.6640625 C238.81008253 477.688686 202.49242564 493.65204277 164 500 C163.30213379 500.11859375 162.60426758 500.2371875 161.88525391 500.359375 C107.53630025 509.17910377 49.34691615 494.72108655 4.703125 462.984375 C-2.44340748 457.78265301 -9.17553478 452.27827957 -15.62109375 446.2265625 C-17.71780132 444.26412685 -19.86327314 442.40757701 -22.0625 440.5625 C-60.2828907 407.06163123 -82.68182071 352.75755369 -86.8190918 302.94287109 C-89.15220057 264.98970895 -82.99540381 228.80978754 -67.75 194 C-67.38374512 193.14809082 -67.01749023 192.29618164 -66.64013672 191.41845703 C-64.74735648 187.19746824 -62.81355183 183.57192482 -59.84765625 180.0078125 C-56.56504524 175.9290266 -53.75466515 172.2981562 -53 167 C-54.2421383 158.49342495 -57.76876316 150.51142882 -60.92880249 142.5677948 C-63.20263951 136.74610942 -64.55561241 130.96552206 -65.5625 124.8125 C-65.70510254 123.97178955 -65.84770508 123.1310791 -65.99462891 122.26489258 C-70.95117558 90.88497672 -67.71828787 58.62216484 -49.0625 32.125 C-47.73074998 30.39913441 -46.37683793 28.69011463 -45 27 C-44.33613281 26.17242188 -43.67226562 25.34484375 -42.98828125 24.4921875 C-33.04028962 12.76054488 -16.52901719 -3.08928916 0 0 Z M-27 60 C-38.6066573 83.8097041 -36.84220459 111.24977983 -29 136 C-25.45947309 133.0375183 -22.0506639 130.10076316 -18.875 126.75 C-13.78935055 121.54743907 -7.81325117 117.34464035 -2 113 C-2.36351562 112.52691406 -2.72703125 112.05382812 -3.1015625 111.56640625 C-15.40484205 95.38286161 -21.70224179 79.8934111 -26 60 C-26.33 60 -26.66 60 -27 60 Z M287 60 C286.88519287 60.55236328 286.77038574 61.10472656 286.65209961 61.67382812 C282.75568411 80.05379296 277.35023003 94.95434624 266 110 C265.12601562 111.16789062 265.12601562 111.16789062 264.234375 112.359375 C263.82703125 112.90078125 263.4196875 113.4421875 263 114 C263.58265625 114.44988281 264.1653125 114.89976563 264.765625 115.36328125 C273.68665358 122.36264172 282.02616214 129.93901637 290 138 C290.81848252 134.81400604 291.62868699 131.6259612 292.4375 128.4375 C292.66759766 127.54224609 292.89769531 126.64699219 293.13476562 125.72460938 C298.65145767 103.89769738 298.17687753 80.35375507 288 60 C287.67 60 287.34 60 287 60 Z M-10 165 C-42.33240447 201.46806789 -55.9536649 250.03367539 -54 298 C-50.7980577 342.36874851 -31.46005882 382.08946219 -1 414 C-0.19949219 414.85335938 0.60101563 415.70671875 1.42578125 416.5859375 C28.90459014 445.09913691 67.13679514 462.38837735 106 468 C106.69077637 468.1016748 107.38155273 468.20334961 108.09326172 468.30810547 C153.07643866 474.13752618 201.60235815 461.76578645 237.86328125 434.43359375 C249.36146618 425.51283508 260.78921408 416.33932888 270 405 C271.22976563 403.52660156 271.22976563 403.52660156 272.484375 402.0234375 C303.86044173 363.81889297 318.04829706 314.96115831 313.50390625 265.859375 C309.31451498 228.02551243 294.03439065 192.68178531 269 164 C268.56107422 163.49404297 268.12214844 162.98808594 267.66992188 162.46679688 C236.72664416 127.04771821 191.47444777 104.54583375 144.51220703 101.14501953 C84.17065498 97.66174626 30.68773507 121.03405333 -10 165 Z " fill="#ffffff" transform="translate(126,5)"/>
<path d="M0 0 C5.17248273 2.28766716 9.12941733 6.08406395 13.25 9.875 C34.24721482 28.94686467 64.11451542 36.86775176 91.9375 35.9375 C117.30343628 33.68956204 139.94841127 24.31619154 158.703125 7.0546875 C163.52978408 2.73696186 167.4317412 -0.24246338 174.0625 -0.5625 C179.09413454 -0.27652384 181.98860454 0.95133945 186 4 C189.66515914 8.24386848 191.22242842 12.39692225 191 18 C189.31059824 29.07984274 177.91856981 36.31901412 169.5 42.5234375 C152.43739171 54.75610342 133.53146716 62.69154544 113 67 C112.12609619 67.18618896 111.25219238 67.37237793 110.35180664 67.56420898 C101.68075911 69.2200794 93.10271832 69.35762755 84.3125 69.3125 C83.55821716 69.31034485 82.80393433 69.3081897 82.02679443 69.30596924 C71.05788991 69.2556278 60.64857516 68.85903994 50 66 C49.22092285 65.80132324 48.4418457 65.60264648 47.63916016 65.39794922 C35.63426199 62.29983612 24.82464261 58.01468434 14 52 C12.90945312 51.41089844 11.81890625 50.82179688 10.6953125 50.21484375 C3.90074897 46.41991577 -2.10468278 42.06922181 -8 37 C-8.89203125 36.24203125 -9.7840625 35.4840625 -10.703125 34.703125 C-22.43534269 24.48031544 -22.43534269 24.48031544 -23.09765625 16.015625 C-22.8612794 11.13680687 -20.67704315 7.78120363 -17.5625 4.1875 C-12.10825569 -0.46856221 -7.03079621 -1.07135942 0 0 Z " fill="#ffffff" transform="translate(172,363)"/>
<path d="M0 0 C7.51392111 5.01371373 11.18338366 11.55015099 14 20 C14.7950422 31.4824948 14.26190309 40.8041994 7 50.25 C0.90327757 56.68615452 -7.62891352 60.7319339 -16.5 61.1015625 C-27.41047975 60.65832426 -35.79718181 57.69320956 -43.375 49.6875 C-49.96241508 41.72497839 -51.68534689 32.82541543 -50.78515625 22.546875 C-49.2147752 13.99203729 -44.99720581 6.92483488 -38.20703125 1.5078125 C-27.22891668 -5.99227993 -11.55094739 -6.98863424 0 0 Z " fill="#ffffff" transform="translate(352,245)"/>
<path d="M0 0 C8.28625671 5.09590352 13.42504306 10.98423261 16.2421875 20.37890625 C18.15302052 29.39564955 17.50427252 38.59350252 12.9140625 46.734375 C7.37607305 54.50213388 0.16169101 59.85595332 -9.20703125 61.91796875 C-19.80840447 63.34923735 -28.55558735 60.36605099 -37.3828125 54.69140625 C-43.92187245 48.32442683 -47.92965659 40.89692183 -48.13842773 31.66992188 C-48.10910153 21.01048592 -46.26319489 13.08677184 -38.828125 5.13671875 C-28.55119737 -3.58897452 -12.23796432 -5.91295582 0 0 Z " fill="#ffffff" transform="translate(193.7578125,243.62109375)"/>
<path d="M0 0 C4.07103631 3.60841855 6.22474572 7.31813276 7.1328125 12.7109375 C7.41135602 18.15182095 6.12387198 22.08605826 2.75 26.4375 C0.03011852 28.92620241 -2.9160067 31.01883611 -5.9375 33.125 C-6.77168457 33.72151367 -7.60586914 34.31802734 -8.46533203 34.93261719 C-10.19481553 36.16660938 -11.9285885 37.39461086 -13.66650391 38.61669922 C-16.15954054 40.37374583 -18.63459405 42.15337307 -21.10546875 43.94140625 C-22.61141229 45.02422633 -24.11789803 46.10629284 -25.625 47.1875 C-26.31940186 47.68854248 -27.01380371 48.18958496 -27.72924805 48.70581055 C-33.72127456 52.9497628 -38.67636115 55.37675049 -46.25 54.4375 C-51.51594344 52.57893173 -54.04395768 49.83435804 -57.25 45.4375 C-59.0368039 40.0770883 -59.17557968 34.59718593 -56.9375 29.375 C-49.91490966 21.69914545 -41.1655486 15.81884155 -32.68359375 9.87109375 C-29.50110448 7.63525491 -26.41122887 5.28811326 -23.3125 2.9375 C-15.6452662 -2.61115604 -8.76330038 -4.21312518 0 0 Z " fill="#ffffff" transform="translate(337.25,176.5625)"/>
<path d="M0 0 C3.84473142 2.48208397 7.49724144 5.21968303 11.15966797 7.96069336 C11.99248291 8.58065186 12.82529785 9.20061035 13.68334961 9.83935547 C15.34642898 11.07793524 17.00848258 12.31789371 18.66943359 13.55932617 C20.6830052 15.0579768 22.70625797 16.54123854 24.73779297 18.01538086 C25.78451172 18.78108398 26.83123047 19.54678711 27.90966797 20.33569336 C28.80556641 20.98666992 29.70146484 21.63764648 30.62451172 22.30834961 C34.15496483 25.26312152 37.68145992 28.66635231 38.21044922 33.40991211 C38.39288283 39.67986743 37.72624906 43.2001108 33.97216797 48.27319336 C29.587185 52.33732392 26.16196886 53.65112748 20.12915039 53.54931641 C12.8325943 52.61525812 6.50940982 46.94623592 0.84716797 42.64819336 C-0.82244121 41.39300415 -2.49302279 40.13910741 -4.16455078 38.88647461 C-4.98358887 38.27239746 -5.80262695 37.65832031 -6.64648438 37.02563477 C-8.81482747 35.4299441 -11.00787711 33.89095851 -13.23486328 32.37866211 C-13.86956543 31.94440918 -14.50426758 31.51015625 -15.15820312 31.06274414 C-16.84658794 29.91632127 -18.54430312 28.78367329 -20.24267578 27.65209961 C-24.1670107 24.3001782 -26.42457075 20.83509518 -27.62939453 15.71850586 C-27.6985847 8.86867887 -25.77099046 4.2577072 -21.02783203 -0.72680664 C-13.83448358 -5.34140754 -7.06564308 -4.21494316 0 0 Z " fill="#ffffff" transform="translate(195.02783203125,177.726806640625)"/>
</svg>
